<svg xmlns="http://www.w3.org/2000/svg" width="75.52" height="106.455" viewBox="0 0 70.8 99.802"><path class="st16" d="M0 91.9v-84C0 3.5 3.6 0 7.9 0h55c4.4 0 7.9 3.6 7.9 7.9v84c0 4.4-3.6 7.9-7.9 7.9h-55c-4.4.1-7.9-3.5-7.9-7.9z" fill="#fff"/><path class="st17" d="M58.9 46.4c-.3-.2-.6-.2-1.1.2-2.7 2.2-10.6 4.7-12.9.5-.6-1.2-1.2-2.2-1.7-3-1.5-2.2-3.9-.4-5.9-1-1-.3-1.8-1.1-2.4-3.1-.3-.9-.1-1.1.4-1.3.4-.1 1.9-.6 2.4-.8 3.8-1.5 1.6-1.8 5.6-3.9 0 0-.2-1.5-.3-2.2-.1-1.4.2-1.5.9-.5.6.8 1.1 1.4 1.1 1.4.2.3.4.3.5-.1l.5-2.7c.3-1.5.7-1.6 1.5-.2 1.1 2.1 1.8 3.2 4.5 5.6 2.8 2.5 2.4 6.5.4 9.7-.3.4-.3.8-.1 1.1.2.2.5.4 1.1.2 5-1.8 8.7-7.5 6.2-13.7-1.9-4.9-6.5-8.4-11.9-9.1-2.1-.2-4.9-.1-8.3 1.6-.1-.5-.4-1.2-.7-1.7-1.7-3-5.1-4.3-7.8-2.8-2.3 1.2-3.6 4.6-1.8 8.1 1.2 2.2 3.2 2.9 3.4 3-.7 1.1-1.6 3.2-1.7 5.1 0 .3-.1.4-.3.4-.2 0-.3-.1-.4-.5-.5-1.9.3-4 .3-4.1-2.7-1.3-4.7-4.4-4.2-8.1H14.1c-2.3 0-3.3 2.1-3.3 3.6 0 1.9 1 3.7 3.3 3.7h9c.7 0 .7.4.4.7l-4.2 3.7c-.7.6-1.2 1.3-1.1 2.5.1 1.1 1 2.1 3.3 2.1h.7c2.6 0 4.4.9 4.4 3.6 0 1.9-1.5 3.7-4.4 3.7-2.5 0-4.4-1-6.5-3.2-1.2-1.3-2.9-1.5-4.6.1-1.3 1.3-2 2.9-.5 4.6 1 1.2 5.1 5.5 11.7 5.5 6.3 0 10.3-4 11.6-5.6 2.4 3 6.3 5.6 11.5 5.6s10.4-2.8 13.1-7.5c.7-.3.9-.9.4-1.2zM50 73c1.4 0 2.6-1.1 2.6-2.5h-5.2c0 1.4 1.2 2.5 2.6 2.5z" fill="#d30d23"/><g><path d="M11.9 87.2V87h-.3v1.9h.3v-1.1c0-.3.1-.5.4-.5.1 0 .2 0 .2.1l.1-.3c-.1-.1-.2-.1-.3-.1-.2-.1-.3 0-.4.2zM13.7 86.9c-.5 0-.9.4-.9 1s.4 1 1 1c.3 0 .6-.1.7-.3l-.2-.2c-.1.1-.3.2-.5.2-.4 0-.6-.3-.6-.6h1.5v-.1c-.1-.5-.5-1-1-1zm-.6.9c.1-.3.3-.5.6-.5s.5.2.6.5h-1.2zM15.9 87.3c.2 0 .4.1.5.2l.2-.2c-.2-.2-.4-.3-.7-.3-.5 0-1 .4-1 1s.4 1 1 1c.3 0 .5-.1.7-.3l-.2-.3c-.1.1-.3.2-.5.2-.4 0-.6-.3-.6-.7 0-.4.3-.6.6-.6zM17.8 86.9c-.5 0-1 .4-1 1s.4 1 1 1c.5 0 1-.4 1-1s-.5-1-1-1zm0 1.7c-.4 0-.6-.3-.6-.7 0-.4.3-.7.6-.7.4 0 .6.3.6.7 0 .4-.2.7-.6.7zM20.2 86.9c-.2 0-.4.1-.6.3V87h-.3v1.9h.3v-1.1c0-.3.2-.5.5-.5s.5.2.5.5v1.1h.3v-1.1c0-.6-.2-.9-.7-.9zM22.5 86.9c-.2 0-.4.1-.6.3V87h-.3v1.9h.3v-1.1c0-.3.2-.5.5-.5s.5.2.5.5v1.1h.3v-1.1c0-.6-.3-.9-.7-.9zM25.1 88c0 .3-.2.5-.5.5s-.5-.2-.5-.5v-1h-.3v1.1c0 .5.3.8.8.8s.8-.3.8-.8V87h-.3v1zM26.9 86.9c-.5 0-.9.4-.9 1s.4 1 1 1c.3 0 .6-.1.7-.3l-.2-.2c-.1.1-.3.2-.5.2-.4 0-.6-.3-.6-.6h1.5v-.1c-.1-.5-.5-1-1-1zm-.5.9c.1-.3.3-.5.6-.5s.5.2.6.5h-1.2zM30.7 87.3c-.1-.2-.4-.3-.7-.3-.5 0-.9.4-.9 1s.4 1 .9 1c.3 0 .5-.1.7-.3v.3h.3v-2.7h-.3v1zm-.6 1.3c-.4 0-.6-.3-.6-.7 0-.4.3-.7.6-.7.4 0 .6.3.6.7 0 .4-.3.7-.6.7zM31.5 87h.3l.2-.8h-.4zM33.7 88c0 .3-.2.5-.5.5s-.5-.2-.5-.5v-1h-.3v1.1c0 .5.3.8.8.8s.8-.3.8-.8V87h-.3v1zM35.4 88.6c-.2 0-.3-.1-.3-.3v-1h.5V87h-.5v-.5h-.3v.5h-.3v.3h.3v1c0 .4.2.6.6.6.2 0 .4-.1.4-.2l-.2-.3c0 .1-.1.2-.2.2zM36.3 87h.3v1.9h-.3zM36.4 86.2c-.1 0-.2.1-.2.2s.1.2.2.2.2-.1.2-.2-.1-.2-.2-.2zM37.3 86.2h.3v2.7h-.3zM38.5 86.2c-.1 0-.2.1-.2.2s.1.2.2.2.2-.1.2-.2-.1-.2-.2-.2zM38.3 87h.3v1.9h-.3zM40 88.6c-.2 0-.3-.1-.3-.3v-1h.5V87h-.5v-.5h-.3v.5h-.3v.3h.3v1c0 .4.2.6.6.6.2 0 .4-.1.4-.2l-.2-.3c0 .1-.1.2-.2.2zM44.8 86.9c-.3 0-.5.1-.7.3v-.3h-.3v2.6h.3v-1c.1.2.4.3.7.3.5 0 .9-.4.9-1 0-.4-.4-.9-.9-.9zm0 1.7c-.4 0-.6-.3-.6-.7 0-.4.3-.7.6-.7.4 0 .6.3.6.7 0 .4-.3.7-.6.7zM47.6 88c0 .3-.2.5-.5.5s-.5-.2-.5-.5v-1h-.3v1.1c0 .5.3.8.8.8s.8-.3.8-.8V87h-.3v1zM49.6 86.9c-.3 0-.5.1-.7.3v-1.1h-.3v2.7h.3v-.3c.1.2.4.3.7.3.5 0 .9-.4.9-1 0-.4-.4-.9-.9-.9zm-.1 1.7c-.4 0-.6-.3-.6-.7 0-.4.3-.7.6-.7.4 0 .6.3.6.7 0 .4-.2.7-.6.7zM51 86.2h.3v2.7H51zM52 87h.3v1.9H52zM52.2 86.2c-.1 0-.2.1-.2.2s.1.2.2.2.2-.1.2-.2-.1-.2-.2-.2zM54.5 87.3c-.1-.2-.4-.3-.7-.3-.5 0-.9.4-.9 1s.4 1 .9 1c.3 0 .5-.1.7-.3v1.1h.3v-2.6h-.3v.1zm-.6 1.3c-.4 0-.6-.3-.6-.7 0-.4.3-.7.6-.7.4 0 .6.3.6.7 0 .4-.3.7-.6.7zM56.8 88c0 .3-.2.5-.5.5s-.5-.2-.5-.5v-1h-.3v1.1c0 .5.3.8.8.8s.8-.3.8-.8V87h-.3v1zM58.6 86.9c-.5 0-.9.4-.9 1s.4 1 1 1c.3 0 .6-.1.7-.3l-.2-.2c-.1.1-.3.2-.5.2-.4 0-.6-.3-.6-.6h1.5v-.1c-.1-.5-.5-1-1-1zm-.6.9c.1-.3.3-.5.6-.5s.5.2.6.5H58zM11.5 83.6h47.8v.3H11.5zM15 12.8h-1.7v-1h2.1v-1.6h-3.9v5.3h1.8v-1.3H15zM24.1 11.7c.2 0 .4-.1.5-.1.6 0 .8.3.8 1v2.9h1.8v-3c0-1.7-1-2.4-2.6-2.4-.7 0-1.5.1-2.3.4v5.1h1.8v-3.9zM33.3 12.9c0-1.8-1-2.8-3-2.8-.6 0-1.3.1-2.1.1v5.3c.9.1 1.6.2 2.1.2 2 0 3-1 3-2.8zM30 11.6h.5c.7 0 1.1.4 1.1 1.3s-.4 1.3-1.1 1.3H30v-2.6zM36.3 15.7c.6 0 1.1-.2 1.4-.6v.5h1.8v-5.3h-1.8v.5c-.4-.5-.9-.6-1.4-.6-1.4 0-2.4 1.2-2.4 2.8 0 1.5 1 2.7 2.4 2.7zm.4-4.1c.6 0 1 .5 1 1.3s-.4 1.3-1 1.3-1-.5-1-1.3.4-1.3 1-1.3zM44.8 10.2h-4.6v1.5h1.4v3.8h1.8v-3.8h1.4zM45.5 10.2h1.8v5.3h-1.8zM56.2 11.7c.2 0 .4-.1.5-.1.6 0 .8.3.8 1v2.9h1.8v-3c0-1.7-1-2.4-2.6-2.4-.7 0-1.5.1-2.3.4v5.1h1.8v-3.9zM13.7 63.4c.2 0 .4-.1.5-.1.7 0 .9.4.9 1.3v3.5h2.2v-3.7c0-.4 0-.7-.1-1 .3-.1.5-.1.6-.1.6 0 .9.4.9 1.3v3.5h2.2v-3.8c0-1.9-.9-2.9-2.7-2.9-.7 0-1.4.2-2 .4-.5-.3-1.1-.4-1.9-.4-.8 0-1.7.2-2.7.4V68h2.2v-4.6zM22.1 61.7h2.2v6.5h-2.2zM25.6 61.7v6.4h4.3v-1.8h-2.1v-4.6zM35.4 66.3h-2.2v-4.6h-2.1v6.4h4.3zM36.5 61.7h2.2v6.5h-2.2zM49.7 63.4c.2-.1.4-.1.6-.1.8 0 1 .4 1 1.3v3.5h2.2v-3.7c0-2.1-1.2-2.9-3.1-2.9-.9 0-1.8.2-2.8.4v6.2h2.2v-4.7zM59.5 66c0-2.3-2.9-1.9-2.9-2.5 0-.2.3-.3.6-.3.5 0 1.3.2 1.7.4l.5-1.7c-.7-.2-1.5-.4-2.1-.4-1.5 0-2.7.7-2.7 2.2 0 2.2 2.9 1.8 2.9 2.5 0 .3-.4.4-.8.4-.5 0-1.3-.2-1.8-.4l-.5 1.8c.7.3 1.4.4 2.2.4 1.5-.1 2.9-.8 2.9-2.4zM14.7 72c-.7 0-1.8.1-3.2.2v8c1.4.1 2.4.2 3.2.2 3 0 4.6-1.5 4.6-4.2 0-2.8-1.6-4.2-4.6-4.2zm.3 6.2c-.4 0-.7 0-.9-.1v-3.9c.2 0 .4-.1.9-.1 1.1 0 1.7.7 1.7 2 0 1.4-.6 2.1-1.7 2.1zM32.8 80.2v-8h-2.6v.9l-.1-.1c-.6-.7-1.3-1-2.2-1-2.1 0-3.6 1.8-3.6 4.2 0 2.5 1.5 4.2 3.6 4.2.9 0 1.6-.3 2.2-1l.1-.1v.9h2.6zm-4.2-2c-.9 0-1.6-.8-1.6-2s.6-2 1.6-2c.9 0 1.6.8 1.6 2-.1 1.2-.7 2-1.6 2zM46.6 80.2v-4.7c0-2.4-1.1-3.6-3.4-3.6-.9 0-1.7.2-2.5.5-.6-.4-1.4-.5-2.3-.5-.9 0-2.1.2-3.3.5v7.7h2.6v-5.7c.3-.1.5-.1.7-.1.8 0 1.2.5 1.2 1.7v4.4h2.6v-4.6c0-.5 0-.9-.1-1.2.3-.1.6-.1.8-.1.8 0 1.2.5 1.2 1.7v4.4h2.5zM56.8 75.1c-.6-.2-1-.3-1-.6 0-.2.1-.4.8-.4.7 0 1.6.2 2.1.4l.6-2c-.9-.3-1.8-.5-2.6-.5-2.1 0-3.4 1-3.4 2.7 0 1.8 1.5 2.2 2.6 2.5.6.2 1.1.3 1.1.6 0 .4-.4.6-1.1.6-.7 0-1.6-.2-2.2-.5l-.6 2.1c.9.3 1.8.5 2.7.5 1.8 0 3.8-.7 3.8-2.8-.1-2-1.7-2.4-2.8-2.6zM48.7 74.2h2.6v6h-2.6zM20.2 75.5h2.3l1-3.3H21zM43.1 68.3c2.1 0 3.5-1.4 3.5-3.4s-1.4-3.4-3.5-3.4-3.5 1.4-3.5 3.4 1.5 3.4 3.5 3.4zm0-5c.8 0 1.4.6 1.4 1.5s-.6 1.6-1.4 1.6c-.8 0-1.4-.7-1.4-1.6 0-.9.6-1.5 1.4-1.5zM18.7 15.7c1.7 0 2.9-1.1 2.9-2.8 0-1.6-1.2-2.8-2.9-2.8s-2.9 1.1-2.9 2.8c0 1.6 1.2 2.8 2.9 2.8zm0-4c.6 0 1.1.5 1.1 1.2s-.5 1.2-1.1 1.2c-.6 0-1.1-.5-1.1-1.2s.5-1.2 1.1-1.2zM50.9 15.7c1.7 0 2.9-1.1 2.9-2.8 0-1.6-1.2-2.8-2.9-2.8S48 11.2 48 12.9c0 1.6 1.2 2.8 2.9 2.8zm0-4c.6 0 1.1.5 1.1 1.2s-.5 1.2-1.1 1.2c-.6 0-1.1-.5-1.1-1.2s.4-1.2 1.1-1.2zM41.5 86.9c-.5 0-.9.4-.9 1s.4 1 1 1c.3 0 .6-.1.7-.3l-.2-.2c-.1.1-.3.2-.5.2-.4 0-.6-.3-.6-.6h1.5v-.1c-.1-.5-.5-1-1-1zm-.5.9c.1-.3.3-.5.6-.5s.5.2.6.5H41zM41.7 86.6l.4-.4h-.4l-.3.4z"/></g></svg>