<!-- Generated by IcoMoon.io -->
<svg version="1.1" xmlns="http://www.w3.org/2000/svg" width="45" height="32" viewBox="0 0 45 32">
<title>horn</title>
<path d="M24.818 3.486c-0.273-0.424-0.849-0.545-1.303-0.273-0.333 0.212-0.515 0.636-0.394 1.030l10.212 22.485c0.151 0.485 0.667 0.788 1.151 0.636s0.788-0.667 0.636-1.151c-0.030-0.091-0.061-0.182-0.121-0.242l-10.182-22.485zM1.757 25.85c-0.212-0.455-0.758-0.667-1.212-0.455s-0.667 0.758-0.455 1.212l1.303 2.849c0.273 0.424 0.849 0.545 1.303 0.273 0.333-0.212 0.515-0.636 0.394-1.030l-1.333-2.849zM20.939 30.183l-5.030 0.424c-0.091 0.030-0.212 0-0.273-0.061l-0.242-2.727 5.576-0.515 0.242 2.788c-0.091 0.061-0.182 0.091-0.273 0.091zM7.818 23.607c-0.121 0.121-0.273 0.182-0.455 0.212-0.424 0.030-0.758-0.303-0.788-0.727 0-0.212 0.061-0.424 0.242-0.576l12.030-11.576c0.333-0.273 0.788-0.212 1.061 0.121 0.242 0.303 0.212 0.697-0.030 0.97l-12.061 11.576zM22.818 5.395l-20.97 20.121 1.515 3.394 10.636-0.97 0.242 2.788c0.152 0.818 0.909 1.394 1.727 1.273l5.030-0.455h0.091c0.788-0.061 1.394-0.727 1.394-1.515l-0.242-2.788 10.061-0.939-9.485-20.909zM41.485 8.486c-0.394-0.727-1.273-1.030-2.030-0.697l-4.636 2.333c-0.788 0.303-1.212 1.212-0.879 2 0.303 0.788 1.212 1.212 2 0.879 0.091-0.030 0.182-0.091 0.273-0.152l4.576-2.333c0.788-0.364 1.091-1.273 0.697-2.030zM32.394 7.849c0.818 0.273 1.697-0.182 1.939-1l1.636-4.939c0.182-0.849-0.333-1.667-1.151-1.849-0.727-0.182-1.485 0.212-1.788 0.909l-1.636 4.939c-0.242 0.788 0.182 1.667 1 1.939zM43.485 16.849l-4.909-1.636c-0.818-0.242-1.697 0.212-1.939 1.030-0.242 0.788 0.182 1.636 0.97 1.909l4.909 1.636c0.818 0.273 1.697-0.182 1.939-0.97 0.273-0.818-0.151-1.697-0.97-1.97z"></path>
</svg>
