<!-- Generated by IcoMoon.io -->
<svg version="1.1" xmlns="http://www.w3.org/2000/svg" width="32" height="32" viewBox="0 0 32 32">
<title>instagram</title>
<path d="M4.364 0c-2.393 0-4.364 1.971-4.364 4.364v23.273c0 2.393 1.971 4.364 4.364 4.364h23.273c2.393 0 4.364-1.971 4.364-4.364v-23.273c0-2.393-1.971-4.364-4.364-4.364zM23.273 4.364h4.364v4.364h-4.364zM16 10.182c3.233 0 5.818 2.585 5.818 5.818s-2.585 5.818-5.818 5.818-5.818-2.585-5.818-5.818 2.585-5.818 5.818-5.818zM2.909 13.091h4.864c-0.317 0.864-0.5 1.862-0.5 2.903 0 0.002 0 0.005 0 0.007v-0c0 4.8 3.927 8.727 8.727 8.727s8.727-3.927 8.727-8.727c0-1.018-0.176-2-0.5-2.909h4.864v14.545c0 0.823-0.631 1.455-1.455 1.455h-23.273c-0.823 0-1.455-0.631-1.455-1.455z"></path>
</svg>
