<!-- Generated by IcoMoon.io -->
<svg version="1.1" xmlns="http://www.w3.org/2000/svg" width="32" height="32" viewBox="0 0 32 32">
<title>twitter</title>
<path d="M32.001 6.703c-1.099 0.5-2.373 0.865-3.71 1.028l-0.063 0.006c1.358-0.822 2.379-2.083 2.874-3.584l0.013-0.046c-1.2 0.723-2.597 1.275-4.085 1.577l-0.085 0.014c-1.198-1.277-2.896-2.072-4.78-2.072-0.004 0-0.008 0-0.011 0h0.001c-3.626 0-6.567 2.938-6.567 6.564 0 0.514 0.060 1.015 0.172 1.496-5.457-0.275-10.292-2.888-13.532-6.861-0.558 0.943-0.887 2.077-0.887 3.289 0 0.005 0 0.009 0 0.013v-0.001c0 2.277 1.157 4.287 2.92 5.466-1.098-0.037-2.117-0.337-3.008-0.84l0.033 0.017v0.083c0 3.182 2.265 5.833 5.265 6.439-0.516 0.145-1.108 0.229-1.719 0.229-0.441 0-0.871-0.043-1.287-0.126l0.042 0.007c0.838 2.606 3.262 4.509 6.132 4.562-2.214 1.75-5.046 2.807-8.124 2.807-0.010 0-0.020 0-0.030-0h0.002c-0.531 0-1.052-0.030-1.564-0.092 2.836 1.85 6.308 2.95 10.036 2.95 0.009 0 0.019 0 0.029-0h-0.002c12.075 0 18.68-10.002 18.68-18.676 0-0.285-0.008-0.571-0.017-0.85 1.29-0.94 2.376-2.067 3.244-3.352l0.030-0.047z"></path>
</svg>
