<!-- Generated by IcoMoon.io -->
<svg version="1.1" xmlns="http://www.w3.org/2000/svg" width="32" height="32" viewBox="0 0 32 32">
<title>whatsapp</title>
<path d="M27.323 4.685c-2.877-2.894-6.861-4.685-11.264-4.685-0.015 0-0.029 0-0.044 0h0.002c-8.81 0-15.979 7.166-15.982 15.976 0 0.007 0 0.014 0 0.022 0 2.932 0.792 5.68 2.174 8.040l-0.041-0.075-2.168 8.037 8.373-1.979c2.206 1.224 4.837 1.945 7.637 1.946h0.006c8.808 0 15.978-7.168 15.982-15.976 0-0.016 0-0.035 0-0.055 0-4.396-1.787-8.376-4.675-11.25l-0.001-0.001zM23.837 21.686c-0.333 0.933-1.963 1.832-2.696 1.898-0.733 0.067-1.419 0.331-4.792-0.998-4.059-1.6-6.622-5.762-6.821-6.027-0.2-0.267-1.63-2.165-1.63-4.13s1.032-2.931 1.398-3.33c0.262-0.298 0.641-0.488 1.064-0.499l0.002-0c0.266 0 0.533 0 0.765 0.010 0.285 0.011 0.6 0.026 0.899 0.69 0.355 0.79 1.131 2.765 1.23 2.965s0.166 0.434 0.034 0.699-0.2 0.432-0.398 0.666c-0.2 0.234-0.419 0.52-0.598 0.699-0.2 0.198-0.408 0.416-0.176 0.814 0.234 0.4 1.034 1.707 2.221 2.765 1.526 1.36 2.811 1.781 3.211 1.982 0.4 0.2 0.632 0.166 0.866-0.101 0.234-0.266 0.998-1.165 1.264-1.565s0.533-0.333 0.899-0.2 2.33 1.099 2.728 1.299c0.4 0.2 0.666 0.299 0.765 0.466 0.099 0.165 0.099 0.965-0.234 1.898z"></path>
</svg>
