<!-- Generated by IcoMoon.io -->
<svg version="1.1" xmlns="http://www.w3.org/2000/svg" width="32" height="32" viewBox="0 0 32 32">
<title>youtube</title>
<path d="M5.888 0l2.365 8.55v4.099h2.051v-4.099l2.395-8.55h-2.064l-0.861 3.891c-0.129 0.52-0.29 1.341-0.429 2.17l-0.035 0.255h-0.064c-0.101-0.672-0.254-1.488-0.464-2.44l-0.83-3.875h-2.064zM15.091 3.229c-0.694 0-1.254 0.134-1.682 0.411-0.427 0.275-0.742 0.717-0.944 1.32-0.2 0.603-0.299 1.402-0.299 2.397v1.344c0 0.984 0.086 1.771 0.262 2.365s0.472 1.030 0.89 1.312c0.418 0.282 0.992 0.422 1.725 0.422 0.714 0 1.28-0.139 1.696-0.416s0.72-0.71 0.904-1.309c0.186-0.598 0.278-1.39 0.278-2.376v-1.344c0-0.992-0.094-1.789-0.285-2.387-0.19-0.597-0.493-1.037-0.906-1.318s-0.957-0.421-1.64-0.421zM19.006 3.41v6.902c0 0.854 0.144 1.483 0.434 1.885 0.291 0.402 0.744 0.603 1.357 0.603 0.883 0 1.549-0.427 1.99-1.28h0.045l0.181 1.13h1.627v-9.24h-2.077v7.341c-0.083 0.174-0.209 0.317-0.364 0.418l-0.004 0.002c-0.145 0.103-0.325 0.165-0.52 0.166h-0c-0.211 0-0.362-0.086-0.453-0.262s-0.138-0.472-0.138-0.885v-6.781h-2.080zM15.043 4.659c0.291 0 0.498 0.152 0.613 0.459 0.115 0.306 0.173 0.792 0.173 1.456v2.88c0 0.682-0.058 1.176-0.173 1.477s-0.32 0.451-0.608 0.453c-0.293 0-0.494-0.152-0.605-0.453-0.112-0.301-0.165-0.795-0.165-1.478v-2.877c0-0.662 0.056-1.149 0.171-1.456 0.115-0.304 0.312-0.459 0.594-0.459zM4.8 14.4c-1.76 0-3.2 1.44-3.2 3.2v11.2c0 1.76 1.44 3.2 3.2 3.2h22.4c1.76 0 3.2-1.44 3.2-3.2v-11.2c0-1.76-1.44-3.2-3.2-3.2h-22.4zM16.078 17.6h1.69v4.109h0.013c0.152-0.298 0.371-0.536 0.651-0.718s0.582-0.272 0.906-0.272c0.416 0 0.741 0.112 0.978 0.331 0.237 0.221 0.411 0.578 0.517 1.069 0.106 0.493 0.155 1.176 0.155 2.050v1.235h0.003c0 1.163-0.142 2.016-0.422 2.563s-0.715 0.821-1.309 0.821c-0.331 0-0.63-0.075-0.902-0.227-0.263-0.145-0.473-0.359-0.609-0.617l-0.004-0.008h-0.038l-0.176 0.736h-1.451v-11.070zM5.578 17.994h5.203v1.416h-1.744v9.262h-1.715v-9.264h-1.744v-1.414zM24.157 20.722c0.602 0 1.064 0.112 1.387 0.331 0.32 0.221 0.549 0.566 0.682 1.032 0.131 0.467 0.197 1.112 0.197 1.934v1.338h-2.938v0.397c0 0.501 0.013 0.875 0.043 1.125 0.032 0.25 0.091 0.432 0.184 0.547s0.237 0.171 0.432 0.171c0.262 0 0.443-0.102 0.541-0.306 0.096-0.203 0.15-0.541 0.16-1.016l1.515 0.088c0.008 0.067 0.011 0.162 0.011 0.28 0 0.722-0.198 1.261-0.592 1.616-0.397 0.357-0.952 0.534-1.674 0.534-0.864 0-1.472-0.272-1.821-0.816-0.349-0.542-0.522-1.381-0.522-2.518v-1.362c0-1.171 0.179-2.027 0.539-2.566s0.981-0.81 1.854-0.81zM10.256 20.872h1.76v5.728c0 0.347 0.038 0.597 0.115 0.744 0.077 0.149 0.202 0.222 0.381 0.222 0.165-0.001 0.319-0.054 0.444-0.142l-0.002 0.002c0.134-0.088 0.239-0.209 0.307-0.352l0.002-0.005v-6.197h1.76v7.8h-1.379l-0.149-0.957h-0.042c-0.374 0.723-0.934 1.085-1.68 1.085-0.52 0-0.898-0.17-1.144-0.509s-0.373-0.87-0.373-1.59v-5.829zM24.118 21.909c-0.187 0-0.326 0.058-0.416 0.166-0.090 0.11-0.149 0.291-0.176 0.541-0.029 0.293-0.046 0.633-0.046 0.977 0 0.056 0 0.111 0.001 0.167l-0-0.008v0.56h1.285v-0.56c0-0.499-0.016-0.877-0.051-1.136-0.032-0.259-0.094-0.442-0.184-0.547s-0.224-0.16-0.413-0.16zM18.547 21.966c-0.184 0.003-0.349 0.079-0.469 0.201l-0 0c-0.145 0.139-0.252 0.316-0.305 0.515l-0.002 0.008v4.427c0.134 0.246 0.391 0.41 0.686 0.41 0.005 0 0.010-0 0.016-0h-0.001c0.006 0 0.014 0 0.021 0 0.17 0 0.322-0.079 0.421-0.203l0.001-0.001c0.112-0.136 0.192-0.365 0.238-0.688 0.046-0.32 0.069-0.768 0.069-1.336v-1.003c0-0.611-0.018-1.082-0.056-1.413s-0.107-0.571-0.203-0.71c-0.087-0.127-0.232-0.208-0.395-0.208-0.007 0-0.015 0-0.022 0l0.001-0z"></path>
</svg>
